<?xml version="1.0" standalone="no"?>
<!DOCTYPE svg PUBLIC "-//W3C//DTD SVG 20010904//EN"
 "http://www.w3.org/TR/2001/REC-SVG-20010904/DTD/svg10.dtd">
<svg version="1.0" xmlns="http://www.w3.org/2000/svg"
 width="700.000000pt" height="700.000000pt" viewBox="0 0 700.000000 700.000000"
 preserveAspectRatio="xMidYMid meet">
<metadata>
Created by potrace 1.11, written by Peter Selinger 2001-2013
</metadata>
<g transform="translate(0.000000,700.000000) scale(0.100000,-0.100000)"
fill="#000000" stroke="none">
<path d="M3855 6918 c-267 -57 -483 -175 -670 -363 -211 -212 -337 -471 -373
-765 -8 -72 -7 -269 2 -345 69 -567 441 -1219 1036 -1815 75 -75 106 -99 147
-113 84 -30 155 -26 236 11 100 46 508 514 704 807 202 304 370 673 418 921
35 183 39 221 39 379 0 245 -31 379 -136 592 -97 195 -263 382 -443 499 -157
102 -278 149 -510 200 -16 3 -104 7 -195 9 -133 2 -183 -2 -255 -17z m420
-789 c198 -74 326 -242 342 -448 7 -99 -9 -179 -52 -266 -64 -130 -167 -220
-302 -266 -131 -45 -305 -25 -429 47 -180 106 -281 332 -242 544 35 194 195
359 395 410 64 16 220 5 288 -21z"/>
<path d="M5635 3567 c-102 -34 -134 -59 -270 -211 -44 -49 -89 -98 -100 -110
-11 -12 -54 -60 -95 -106 -41 -47 -79 -90 -85 -96 -105 -114 -161 -178 -166
-187 -4 -7 -9 -35 -13 -62 -8 -68 -41 -166 -79 -234 -45 -82 -167 -199 -253
-244 -128 -66 -161 -70 -599 -71 -353 -1 -393 0 -425 16 -93 46 -97 165 -7
231 25 19 45 20 414 21 435 2 444 3 538 74 231 174 170 524 -105 606 -46 14
-133 16 -626 16 l-572 0 -104 35 c-198 68 -288 86 -453 90 -140 4 -173 0 -330
-30 -101 -20 -289 -103 -394 -174 -101 -69 -131 -98 -568 -532 l-433 -429 168
-164 c92 -90 210 -205 262 -256 88 -85 688 -671 701 -684 3 -3 78 66 166 154
l161 160 969 1 c1057 1 1027 -1 1183 60 84 32 203 107 266 166 22 21 89 94
149 163 60 69 112 127 115 130 3 3 34 39 70 80 36 41 69 80 75 86 34 37 81 91
160 184 50 58 93 107 96 110 3 3 39 43 80 90 40 47 78 90 84 96 69 75 397 456
418 487 39 58 55 121 53 207 -3 131 -69 237 -187 300 -52 27 -74 33 -143 36
-50 2 -96 -1 -121 -9z"/>
<path d="M542 832 c-30 -23 -40 -83 -18 -116 29 -46 123 -44 141 2 10 26 -11
36 -28 12 -19 -27 -61 -35 -81 -14 -25 25 -21 81 9 100 23 15 65 12 65 -6 0
-12 29 -20 35 -10 3 5 -3 18 -15 30 -25 25 -77 26 -108 2z"/>
<path d="M1093 843 c-7 -3 -13 -11 -13 -18 0 -7 -6 -16 -12 -19 -10 -5 -10 -7
0 -12 6 -3 12 -23 12 -44 0 -21 3 -45 6 -54 7 -17 54 -22 54 -6 0 6 -7 10 -15
10 -11 0 -15 12 -15 45 0 33 4 45 15 45 8 0 15 5 15 10 0 6 -6 10 -14 10 -8 0
-16 8 -18 18 -2 11 -9 17 -15 15z"/>
<path d="M1400 818 c0 -25 -3 -29 -12 -20 -18 18 -53 15 -71 -6 -23 -25 -21
-68 3 -92 22 -22 66 -27 73 -7 4 10 6 10 6 0 1 -7 8 -13 16 -13 12 0 15 16 15
85 0 69 -3 85 -15 85 -10 0 -15 -10 -15 -32z m-10 -47 c15 -30 12 -49 -11 -61
-25 -14 -49 2 -49 34 0 43 41 61 60 27z"/>
<path d="M1530 767 l0 -84 49 -1 c55 -1 68 8 77 55 8 43 -26 78 -67 69 -26 -5
-29 -3 -29 19 0 16 -6 25 -15 25 -12 0 -15 -16 -15 -83z m88 11 c30 -30 -2
-93 -36 -71 -21 13 -27 50 -12 69 15 17 32 18 48 2z"/>
<path d="M1918 834 c-31 -16 -44 -51 -33 -91 13 -53 68 -78 116 -53 13 7 19 7
19 0 0 -5 5 -10 10 -10 6 0 10 20 10 45 l0 45 -40 0 c-22 0 -40 -4 -40 -10 0
-5 12 -10 26 -10 35 0 29 -31 -9 -44 -57 -20 -96 67 -47 106 28 23 45 23 67
-1 12 -13 23 -17 32 -12 10 7 8 13 -10 30 -26 24 -63 26 -101 5z"/>
<path d="M2779 837 c-22 -17 -39 -51 -39 -80 0 -38 30 -68 75 -74 34 -4 44 -1
64 21 18 19 22 29 14 37 -7 7 -17 2 -32 -16 -17 -22 -26 -26 -48 -20 -34 8
-43 21 -43 61 0 54 54 80 91 43 14 -14 24 -18 31 -11 7 7 3 17 -11 31 -23 23
-76 28 -102 8z"/>
<path d="M690 744 c0 -50 3 -64 15 -64 11 0 15 12 15 44 0 37 5 48 27 64 l26
19 -41 0 -42 0 0 -63z"/>
<path d="M790 790 c-11 -11 -20 -31 -20 -45 0 -53 69 -85 105 -49 22 22 11 30
-20 14 -20 -11 -27 -11 -40 0 -26 22 -16 31 30 27 41 -3 45 -2 45 18 0 49 -64
71 -100 35z m68 -17 c2 -9 -7 -13 -28 -13 -28 0 -31 2 -20 15 15 18 41 16 48
-2z"/>
<path d="M929 790 c-23 -19 -23 -19 -3 -20 11 0 25 5 31 11 13 13 43 5 43 -10
0 -5 -18 -12 -40 -16 -27 -4 -41 -13 -45 -26 -11 -33 11 -48 69 -46 l53 1 -5
51 c-2 27 -9 56 -14 63 -15 18 -63 15 -89 -8z m71 -64 c0 -18 -39 -31 -52 -18
-15 15 0 32 28 32 14 0 24 -6 24 -14z"/>
<path d="M1180 788 c-25 -28 -26 -62 0 -88 24 -24 63 -26 84 -4 25 24 9 35
-24 16 -27 -15 -32 -15 -40 -2 -13 21 -12 31 3 29 6 -1 29 -1 49 0 31 1 36 4
31 19 -19 53 -68 68 -103 30z m70 -13 c11 -13 7 -15 -23 -15 -28 0 -35 3 -31
15 4 8 14 15 24 15 10 0 23 -7 30 -15z"/>
<path d="M1675 793 c4 -10 15 -42 25 -70 19 -52 19 -53 -1 -63 -24 -14 -25
-30 0 -30 25 0 35 14 65 94 30 78 31 86 13 86 -8 0 -20 -21 -29 -47 -13 -40
-17 -44 -23 -28 -4 11 -11 32 -17 48 -6 15 -17 27 -25 27 -10 0 -13 -6 -8 -17z"/>
<path d="M2070 744 c0 -49 3 -64 14 -64 11 0 16 14 18 48 2 38 7 49 26 57 33
15 27 22 -18 22 l-40 0 0 -63z"/>
<path d="M2170 790 c-28 -28 -26 -76 5 -96 28 -18 80 -12 89 12 6 16 -15 19
-30 4 -5 -5 -19 -7 -32 -4 -29 8 -29 36 1 34 58 -5 77 0 70 18 -19 52 -67 68
-103 32z m68 -17 c2 -9 -7 -13 -27 -13 -23 0 -29 4 -24 16 6 17 44 15 51 -3z"/>
<path d="M2309 789 c-23 -23 -24 -57 -3 -87 17 -24 53 -29 72 -10 9 9 12 7 12
-9 0 -27 -31 -38 -60 -23 -26 14 -37 6 -20 -15 7 -8 28 -15 46 -15 45 0 61 28
63 111 l2 66 -46 1 c-33 0 -52 -5 -66 -19z m69 -11 c30 -30 -2 -93 -36 -71
-21 13 -27 50 -12 69 15 17 32 18 48 2z"/>
<path d="M2460 790 c-11 -11 -20 -31 -20 -45 0 -14 9 -34 20 -45 11 -11 31
-20 45 -20 14 0 34 9 45 20 11 11 20 31 20 45 0 14 -9 34 -20 45 -11 11 -31
20 -45 20 -14 0 -34 -9 -45 -20z m68 -12 c32 -32 1 -89 -37 -68 -26 13 -28 55
-3 69 22 13 26 13 40 -1z"/>
<path d="M2590 744 c0 -49 3 -64 14 -64 11 0 16 14 18 48 2 38 7 49 26 57 33
15 27 22 -18 22 l-40 0 0 -63z"/>
<path d="M2920 744 c0 -50 3 -64 15 -64 11 0 15 12 15 50 0 45 2 50 25 56 33
8 23 18 -21 21 l-34 2 0 -65z"/>
<path d="M3016 788 c-22 -31 -20 -64 4 -88 24 -24 63 -26 84 -4 25 24 9 35
-24 16 -27 -15 -32 -15 -40 -2 -13 21 -12 31 3 29 6 -1 29 -1 49 0 31 1 36 4
31 19 -19 54 -79 70 -107 30z m72 -15 c2 -9 -7 -13 -27 -13 -31 0 -42 14 -18
23 19 8 40 3 45 -10z"/>
<path d="M3149 794 c-18 -21 -1 -46 40 -58 17 -5 31 -13 31 -18 0 -17 -31 -20
-48 -5 -11 10 -23 13 -31 8 -10 -7 -8 -12 10 -25 28 -19 59 -21 83 -3 27 20
16 49 -24 62 -19 6 -35 16 -34 21 1 13 34 18 34 5 0 -6 10 -11 22 -11 20 0 21
1 3 20 -22 24 -67 26 -86 4z"/>
<path d="M3270 745 c0 -48 3 -65 14 -65 9 0 14 14 14 47 1 44 15 66 37 60 6
-2 11 -27 13 -55 2 -38 7 -52 18 -52 12 0 14 12 12 56 -3 66 -23 88 -58 66
-12 -7 -20 -8 -20 -2 0 5 -7 10 -15 10 -12 0 -15 -14 -15 -65z"/>
<path d="M3425 790 c-16 -18 -17 -20 -1 -20 9 0 25 6 36 12 15 10 22 10 32 0
18 -18 -1 -29 -54 -31 -21 -1 -33 -38 -18 -56 7 -9 30 -13 64 -12 l53 1 -5 51
c-2 27 -9 56 -14 63 -16 19 -73 15 -93 -8z m75 -64 c0 -17 -24 -28 -45 -20
-29 12 -14 34 22 34 13 0 23 -6 23 -14z"/>
<path d="M3560 744 c0 -49 3 -64 14 -64 11 0 16 14 18 48 2 38 7 49 26 57 33
15 27 22 -18 22 l-40 0 0 -63z"/>
<path d="M533 573 c-4 -10 -11 -22 -17 -26 -8 -6 -7 -10 2 -14 7 -3 12 -25 12
-59 0 -41 4 -54 15 -54 11 0 15 13 15 54 0 34 5 56 13 59 9 4 8 8 -3 16 -12 9
-12 11 3 17 9 3 14 10 11 15 -9 16 -44 10 -51 -8z"/>
<path d="M1120 505 c0 -69 3 -85 15 -85 12 0 15 14 15 62 l0 61 40 -61 c56
-88 70 -83 70 23 0 69 -3 85 -15 85 -12 0 -15 -14 -15 -62 l0 -61 -40 61 c-56
88 -70 83 -70 -23z"/>
<path d="M1800 505 c0 -69 3 -85 15 -85 10 0 15 11 15 35 0 35 0 35 45 35 50
0 72 23 59 63 -10 31 -22 37 -81 37 l-53 0 0 -85z m98 56 c8 -5 12 -17 10 -27
-2 -14 -13 -20 -41 -22 -35 -3 -37 -2 -37 27 0 27 3 31 28 31 15 0 33 -4 40
-9z"/>
<path d="M2200 580 c0 -5 7 -10 15 -10 8 0 15 5 15 10 0 6 -7 10 -15 10 -8 0
-15 -4 -15 -10z"/>
<path d="M2563 583 c-7 -3 -13 -11 -13 -18 0 -7 -6 -16 -12 -18 -10 -4 -10 -7
-1 -14 6 -5 13 -31 15 -58 3 -46 5 -50 31 -53 29 -4 37 12 12 22 -10 3 -15 19
-15 46 0 29 4 40 15 40 8 0 15 5 15 10 0 6 -6 10 -14 10 -8 0 -16 8 -18 18 -2
11 -9 17 -15 15z"/>
<path d="M600 484 c0 -49 3 -64 14 -64 11 0 16 14 18 47 2 38 8 50 26 59 28
14 19 21 -25 22 l-33 1 0 -65z"/>
<path d="M700 530 c-11 -11 -20 -31 -20 -45 0 -14 9 -34 20 -45 11 -11 31 -20
45 -20 14 0 34 9 45 20 11 11 20 31 20 45 0 14 -9 34 -20 45 -11 11 -31 20
-45 20 -14 0 -34 -9 -45 -20z m70 -14 c28 -34 -11 -94 -44 -67 -21 18 -20 57
2 70 23 14 28 13 42 -3z"/>
<path d="M830 485 c0 -51 3 -65 15 -65 11 0 15 12 15 49 0 35 4 51 16 55 26
10 34 -3 34 -55 0 -37 4 -49 15 -49 11 0 15 12 15 49 0 35 4 51 16 55 26 10
34 -3 34 -55 0 -37 4 -49 15 -49 19 0 21 100 3 118 -14 14 -54 16 -63 2 -4 -6
-13 -5 -25 3 -16 9 -24 9 -40 -1 -12 -7 -20 -8 -20 -2 0 5 -7 10 -15 10 -12 0
-15 -14 -15 -65z"/>
<path d="M1310 530 c-11 -11 -20 -31 -20 -45 0 -14 9 -34 20 -45 11 -11 31
-20 45 -20 14 0 34 9 45 20 11 11 20 31 20 45 0 14 -9 34 -20 45 -11 11 -31
20 -45 20 -14 0 -34 -9 -45 -20z m68 -12 c30 -30 -2 -93 -36 -71 -21 13 -27
50 -12 69 15 17 32 18 48 2z"/>
<path d="M1440 504 c0 -68 11 -82 65 -82 l45 1 0 64 c0 49 -3 63 -15 63 -10 0
-14 -12 -13 -46 0 -29 -4 -49 -13 -55 -25 -16 -34 -3 -37 49 -2 37 -7 52 -18
52 -10 0 -14 -12 -14 -46z"/>
<path d="M1580 485 c0 -51 3 -65 15 -65 11 0 15 12 15 49 0 35 4 51 16 55 26
10 34 -3 34 -55 0 -38 4 -49 15 -49 13 0 15 11 13 56 -3 66 -23 88 -58 66 -12
-7 -20 -8 -20 -2 0 5 -7 10 -15 10 -12 0 -15 -14 -15 -65z"/>
<path d="M1960 484 c0 -49 3 -64 14 -64 11 0 16 14 18 47 2 39 7 50 28 60 14
7 23 13 20 14 -3 1 -22 3 -42 4 l-38 4 0 -65z"/>
<path d="M2080 543 c-63 -23 -43 -123 25 -123 14 0 34 9 45 20 50 50 -2 127
-70 103z m48 -25 c32 -32 1 -89 -37 -68 -26 13 -28 55 -3 69 22 13 26 13 40
-1z"/>
<path d="M2200 471 c0 -54 -4 -81 -12 -84 -7 -2 -9 -8 -5 -13 4 -4 16 -3 25 2
24 16 31 174 7 174 -12 0 -15 -15 -15 -79z"/>
<path d="M2270 530 c-11 -11 -20 -31 -20 -45 0 -53 69 -85 105 -49 22 22 11
30 -20 14 -20 -11 -27 -11 -40 0 -26 21 -17 30 30 27 40 -2 45 0 45 19 0 48
-64 70 -100 34z m68 -17 c2 -9 -7 -13 -27 -13 -31 0 -42 14 -18 23 19 8 40 3
45 -10z"/>
<path d="M2410 530 c-41 -41 -13 -110 46 -110 19 0 54 28 54 43 0 13 -23 7
-35 -9 -18 -26 -57 -1 -53 33 4 34 35 54 51 33 16 -20 37 -23 37 -5 0 35 -69
46 -100 15z"/>
</g>
</svg>
