<?xml version="1.0" encoding="UTF-8" standalone="no"?>
<!-- Created with Inkscape (http://www.inkscape.org/) -->

<svg
   xmlns:dc="http://purl.org/dc/elements/1.1/"
   xmlns:cc="http://creativecommons.org/ns#"
   xmlns:rdf="http://www.w3.org/1999/02/22-rdf-syntax-ns#"
   xmlns:svg="http://www.w3.org/2000/svg"
   xmlns="http://www.w3.org/2000/svg"
   xmlns:sodipodi="http://sodipodi.sourceforge.net/DTD/sodipodi-0.dtd"
   xmlns:inkscape="http://www.inkscape.org/namespaces/inkscape"
   width="210mm"
   height="297mm"
   viewBox="0 0 744.09448819 1052.3622047"
   id="svg2"
   version="1.1"
   inkscape:version="0.91 r13725"
   sodipodi:docname="drawing1.svg">
  <defs
     id="defs4">
    <filter
       inkscape:collect="always"
       style="color-interpolation-filters:sRGB"
       id="filter4549"
       x="-0.050869639"
       width="1.1017393"
       y="-0.41634944"
       height="1.8326989">
      <feGaussianBlur
         inkscape:collect="always"
         stdDeviation="5.2484154"
         id="feGaussianBlur4551" />
    </filter>
    <filter
       inkscape:collect="always"
       style="color-interpolation-filters:sRGB"
       id="filter4553"
       x="-0.072021637"
       width="1.1440433"
       y="-0.23438139"
       height="1.4687628">
      <feGaussianBlur
         inkscape:collect="always"
         stdDeviation="5.2484154"
         id="feGaussianBlur4555" />
    </filter>
    <filter
       inkscape:collect="always"
       style="color-interpolation-filters:sRGB"
       id="filter4851"
       x="-0.17999999"
       width="1.36"
       y="-0.36000006"
       height="1.7200001">
      <feGaussianBlur
         inkscape:collect="always"
         stdDeviation="6.1071445"
         id="feGaussianBlur4853" />
    </filter>
  </defs>
  <sodipodi:namedview
     id="base"
     pagecolor="#000000"
     bordercolor="#666666"
     borderopacity="1.0"
     inkscape:pageopacity="0"
     inkscape:pageshadow="2"
     inkscape:zoom="0.98994949"
     inkscape:cx="506.07279"
     inkscape:cy="545.04463"
     inkscape:document-units="px"
     inkscape:current-layer="layer6"
     showgrid="false"
     inkscape:window-width="2511"
     inkscape:window-height="1416"
     inkscape:window-x="49"
     inkscape:window-y="24"
     inkscape:window-maximized="1" />
  <metadata
     id="metadata7">
    <rdf:RDF>
      <cc:Work
         rdf:about="">
        <dc:format>image/svg+xml</dc:format>
        <dc:type
           rdf:resource="http://purl.org/dc/dcmitype/StillImage" />
        <dc:title></dc:title>
      </cc:Work>
    </rdf:RDF>
  </metadata>
  <g
     inkscape:groupmode="layer"
     id="layer7"
     inkscape:label="Layer 3"
     style="display:none">
    <text
       xml:space="preserve"
       style="font-style:normal;font-variant:normal;font-weight:normal;font-stretch:normal;font-size:76.06375122px;line-height:125%;font-family:Alexander;-inkscape-font-specification:'Alexander, Normal';text-align:start;letter-spacing:0px;word-spacing:0px;writing-mode:lr-tb;text-anchor:start;display:inline;fill:#000000;fill-opacity:1;stroke:none;stroke-width:1px;stroke-linecap:butt;stroke-linejoin:miter;stroke-opacity:1"
       x="77.310059"
       y="299.96313"
       id="text4336-7-4"
       sodipodi:linespacing="125%"><tspan
         sodipodi:role="line"
         id="tspan4338-5-7"
         x="77.310059"
         y="299.96313"
         style="font-style:normal;font-variant:normal;font-weight:normal;font-stretch:normal;font-size:76.06375122px;line-height:125%;font-family:Alexander;-inkscape-font-specification:'Alexander, Normal';text-align:start;writing-mode:lr-tb;text-anchor:start;fill:#fdfdfd;fill-opacity:1">Прохідна 1</tspan></text>
    <text
       xml:space="preserve"
       style="font-style:normal;font-weight:normal;font-size:40px;line-height:125%;font-family:sans-serif;letter-spacing:0px;word-spacing:0px;display:inline;fill:#000000;fill-opacity:1;stroke:none;stroke-width:1px;stroke-linecap:butt;stroke-linejoin:miter;stroke-opacity:1"
       x="242.3427"
       y="86.934372"
       id="text4405-9"
       sodipodi:linespacing="125%"><tspan
         sodipodi:role="line"
         id="tspan4407-7"
         x="242.3427"
         y="86.934372"
         style="fill:#ffffff;fill-opacity:1">1234567890</tspan></text>
    <text
       sodipodi:linespacing="125%"
       id="text4638"
       y="204.24886"
       x="63.024345"
       style="font-style:normal;font-variant:normal;font-weight:normal;font-stretch:normal;font-size:76.06375122px;line-height:125%;font-family:Alexander;-inkscape-font-specification:'Alexander, Normal';text-align:start;letter-spacing:0px;word-spacing:0px;writing-mode:lr-tb;text-anchor:start;display:inline;fill:#000000;fill-opacity:1;stroke:none;stroke-width:1px;stroke-linecap:butt;stroke-linejoin:miter;stroke-opacity:1"
       xml:space="preserve"><tspan
         style="font-style:normal;font-variant:normal;font-weight:normal;font-stretch:normal;font-size:76.06375122px;line-height:125%;font-family:Alexander;-inkscape-font-specification:'Alexander, Normal';text-align:start;writing-mode:lr-tb;text-anchor:start;fill:#fdfdfd;fill-opacity:1"
         y="204.24886"
         x="63.024345"
         id="tspan4640"
         sodipodi:role="line">Найменування</tspan></text>
    <rect
       style="fill:none;fill-opacity:1;stroke:#ffffff;stroke-width:4.2889328;stroke-miterlimit:4;stroke-dasharray:none;stroke-opacity:1"
       id="rect4642"
       width="637.85394"
       height="104.99679"
       x="58.215897"
       y="230.57811"
       ry="0" />
    <path
       inkscape:connector-curvature="0"
       d="m 111.84628,45.120846 c -18.462395,0 -35.182995,6.89724 -48.071795,18.11399 l -25.0809,-25.08091 0,62.702274 62.702295,0 -25.220295,-25.220254 c 9.684,-8.08162 22.0155,-13.0978 35.670695,-13.0978 24.6629,0 45.6333,16.09358 52.9485,38.318054 l 16.5116,-5.434204 c -9.684,-29.19139 -37.064,-50.30115 -69.4601,-50.30115 z"
       id="path6-9-3"
       style="display:inline;fill:#fafafa;fill-opacity:1" />
    <text
       xml:space="preserve"
       style="font-style:normal;font-variant:normal;font-weight:normal;font-stretch:normal;font-size:76.06375122px;line-height:125%;font-family:Alexander;-inkscape-font-specification:'Alexander, Normal';text-align:start;letter-spacing:0px;word-spacing:0px;writing-mode:lr-tb;text-anchor:start;display:inline;fill:#000000;fill-opacity:1;stroke:none;stroke-width:1px;stroke-linecap:butt;stroke-linejoin:miter;stroke-opacity:1"
       x="65.881493"
       y="421.39172"
       id="text4671"
       sodipodi:linespacing="125%"><tspan
         sodipodi:role="line"
         id="tspan4673"
         x="65.881493"
         y="421.39172"
         style="font-style:normal;font-variant:normal;font-weight:normal;font-stretch:normal;font-size:76.06375122px;line-height:125%;font-family:Alexander;-inkscape-font-specification:'Alexander, Normal';text-align:start;writing-mode:lr-tb;text-anchor:start;fill:#fdfdfd;fill-opacity:1">Вихiд</tspan></text>
    <ellipse
       style="fill:none;fill-opacity:1;stroke:#ffffff;stroke-width:5;stroke-miterlimit:4;stroke-dasharray:none;stroke-opacity:1"
       id="path4675"
       cx="103.57143"
       cy="490.21936"
       rx="33.57143"
       ry="32.142857" />
    <text
       sodipodi:linespacing="125%"
       id="text4677"
       y="511.39172"
       x="161.59578"
       style="font-style:normal;font-variant:normal;font-weight:normal;font-stretch:normal;font-size:76.06375122px;line-height:125%;font-family:Alexander;-inkscape-font-specification:'Alexander, Normal';text-align:start;letter-spacing:0px;word-spacing:0px;writing-mode:lr-tb;text-anchor:start;display:inline;fill:#000000;fill-opacity:1;stroke:none;stroke-width:1px;stroke-linecap:butt;stroke-linejoin:miter;stroke-opacity:1"
       xml:space="preserve"><tspan
         style="font-style:normal;font-variant:normal;font-weight:normal;font-stretch:normal;font-size:76.06375122px;line-height:125%;font-family:Alexander;-inkscape-font-specification:'Alexander, Normal';text-align:start;writing-mode:lr-tb;text-anchor:start;fill:#fdfdfd;fill-opacity:1"
         y="511.39172"
         x="161.59578"
         id="tspan4679"
         sodipodi:role="line">Постiйний</tspan></text>
  </g>
  <g
     inkscape:groupmode="layer"
     id="layer6"
     inkscape:label="Layer 2"
     style="display:inline">
    <text
       xml:space="preserve"
       style="font-style:normal;font-weight:normal;font-size:183.98686218px;line-height:125%;font-family:sans-serif;letter-spacing:0px;word-spacing:0px;display:inline;fill:#068e77;fill-opacity:1;stroke:none;stroke-width:1px;stroke-linecap:butt;stroke-linejoin:miter;stroke-opacity:1"
       x="22.054512"
       y="197.62903"
       id="text4140-3"
       sodipodi:linespacing="125%"><tspan
         sodipodi:role="line"
         id="tspan4142-6"
         x="22.054512"
         y="197.62903">⚙</tspan></text>
    <text
       xml:space="preserve"
       style="font-style:normal;font-variant:normal;font-weight:normal;font-stretch:normal;font-size:76.06375122px;line-height:125%;font-family:Alexander;-inkscape-font-specification:'Alexander, Normal';text-align:start;letter-spacing:0px;word-spacing:0px;writing-mode:lr-tb;text-anchor:start;display:inline;fill:#000000;fill-opacity:1;stroke:none;stroke-width:1px;stroke-linecap:butt;stroke-linejoin:miter;stroke-opacity:1"
       x="226.39589"
       y="131.67671"
       id="text4336-7"
       sodipodi:linespacing="125%"><tspan
         sodipodi:role="line"
         id="tspan4338-5"
         x="226.39589"
         y="131.67671"
         style="font-style:normal;font-variant:normal;font-weight:normal;font-stretch:normal;font-size:76.06375122px;line-height:125%;font-family:Alexander;-inkscape-font-specification:'Alexander, Normal';text-align:start;writing-mode:lr-tb;text-anchor:start;fill:#fdfdfd;fill-opacity:1">Прохідна 1</tspan></text>
    <flowRoot
       xml:space="preserve"
       id="flowRoot4365"
       style="font-style:normal;font-weight:normal;font-size:40px;line-height:125%;font-family:sans-serif;letter-spacing:0px;word-spacing:0px;fill:#000000;fill-opacity:1;stroke:none;stroke-width:1px;stroke-linecap:butt;stroke-linejoin:miter;stroke-opacity:1"><flowRegion
         id="flowRegion4367"><rect
           id="rect4369"
           width="662.85712"
           height="181.42857"
           x="31.428572"
           y="845.21936" /></flowRegion><flowPara
         id="flowPara4371"></flowPara></flowRoot>    <text
       sodipodi:linespacing="125%"
       id="text4381"
       y="357.62903"
       x="22.054512"
       style="font-style:normal;font-weight:normal;font-size:183.98686218px;line-height:125%;font-family:sans-serif;letter-spacing:0px;word-spacing:0px;display:inline;fill:#068e77;fill-opacity:1;stroke:none;stroke-width:1px;stroke-linecap:butt;stroke-linejoin:miter;stroke-opacity:1"
       xml:space="preserve"><tspan
         y="357.62903"
         x="22.054512"
         id="tspan4383"
         sodipodi:role="line">⚙</tspan></text>
    <text
       sodipodi:linespacing="125%"
       id="text4385"
       y="291.6767"
       x="226.39589"
       style="font-style:normal;font-variant:normal;font-weight:normal;font-stretch:normal;font-size:76.06375122px;line-height:125%;font-family:Alexander;-inkscape-font-specification:'Alexander, Normal';text-align:start;letter-spacing:0px;word-spacing:0px;writing-mode:lr-tb;text-anchor:start;display:inline;fill:#000000;fill-opacity:1;stroke:none;stroke-width:1px;stroke-linecap:butt;stroke-linejoin:miter;stroke-opacity:1"
       xml:space="preserve"><tspan
         style="font-style:normal;font-variant:normal;font-weight:normal;font-stretch:normal;font-size:76.06375122px;line-height:125%;font-family:Alexander;-inkscape-font-specification:'Alexander, Normal';text-align:start;writing-mode:lr-tb;text-anchor:start;fill:#fdfdfd;fill-opacity:1"
         y="291.6767"
         x="226.39589"
         id="tspan4387"
         sodipodi:role="line">Прохідна 2</tspan></text>
    <text
       xml:space="preserve"
       style="font-style:normal;font-weight:normal;font-size:183.98686218px;line-height:125%;font-family:sans-serif;letter-spacing:0px;word-spacing:0px;display:inline;fill:#068e77;fill-opacity:1;stroke:none;stroke-width:1px;stroke-linecap:butt;stroke-linejoin:miter;stroke-opacity:1"
       x="22.054512"
       y="517.62903"
       id="text4389"
       sodipodi:linespacing="125%"><tspan
         sodipodi:role="line"
         id="tspan4391"
         x="22.054512"
         y="517.62903">⚙</tspan></text>
    <text
       xml:space="preserve"
       style="font-style:normal;font-variant:normal;font-weight:normal;font-stretch:normal;font-size:76.06375122px;line-height:125%;font-family:Alexander;-inkscape-font-specification:'Alexander, Normal';text-align:start;letter-spacing:0px;word-spacing:0px;writing-mode:lr-tb;text-anchor:start;display:inline;fill:#000000;fill-opacity:1;stroke:none;stroke-width:1px;stroke-linecap:butt;stroke-linejoin:miter;stroke-opacity:1"
       x="226.39589"
       y="451.6767"
       id="text4393"
       sodipodi:linespacing="125%"><tspan
         sodipodi:role="line"
         id="tspan4395"
         x="226.39589"
         y="451.6767"
         style="font-style:normal;font-variant:normal;font-weight:normal;font-stretch:normal;font-size:76.06375122px;line-height:125%;font-family:Alexander;-inkscape-font-specification:'Alexander, Normal';text-align:start;writing-mode:lr-tb;text-anchor:start;fill:#fdfdfd;fill-opacity:1">Хата</tspan></text>
    <rect
       style="fill:#060000;fill-opacity:1;stroke:#ffffff;stroke-width:5.58009577;stroke-miterlimit:4;stroke-dasharray:none;stroke-opacity:1"
       id="rect4425"
       width="689.41992"
       height="152.27705"
       x="32.290039"
       y="537.7951"
       ry="76.138527" />
    <text
       sodipodi:linespacing="125%"
       id="text4397"
       y="676.46228"
       x="376.22104"
       style="font-style:normal;font-weight:normal;font-size:175.83665466px;line-height:125%;font-family:sans-serif;letter-spacing:0px;word-spacing:0px;display:inline;fill:#ffffff;fill-opacity:1;stroke:none;stroke-width:1px;stroke-linecap:butt;stroke-linejoin:miter;stroke-opacity:1"
       xml:space="preserve"><tspan
         y="676.46228"
         x="376.22104"
         id="tspan4399"
         sodipodi:role="line">⚙</tspan></text>
    <text
       sodipodi:linespacing="125%"
       id="text4401"
       y="611.6767"
       x="224.39589"
       style="font-style:normal;font-variant:normal;font-weight:normal;font-stretch:normal;font-size:76.06375122px;line-height:125%;font-family:Alexander;-inkscape-font-specification:'Alexander, Normal';text-align:start;letter-spacing:0px;word-spacing:0px;writing-mode:lr-tb;text-anchor:start;display:inline;fill:#e9dada;fill-opacity:1;stroke:none;stroke-width:1px;stroke-linecap:butt;stroke-linejoin:miter;stroke-opacity:1;filter:url(#filter4553)"
       xml:space="preserve"><tspan
         style="font-style:normal;font-variant:normal;font-weight:normal;font-stretch:normal;font-size:76.06375122px;line-height:125%;font-family:Alexander;-inkscape-font-specification:'Alexander, Normal';text-align:start;writing-mode:lr-tb;text-anchor:start;fill:#e9dada;fill-opacity:1"
         y="611.6767"
         x="224.39589"
         id="tspan4403"
         sodipodi:role="line">Склад</tspan></text>
    <text
       xml:space="preserve"
       style="font-style:normal;font-weight:normal;font-size:40px;line-height:125%;font-family:sans-serif;letter-spacing:0px;word-spacing:0px;fill:#000000;fill-opacity:1;stroke:none;stroke-width:1px;stroke-linecap:butt;stroke-linejoin:miter;stroke-opacity:1"
       x="225.71429"
       y="188.64792"
       id="text4405"
       sodipodi:linespacing="125%"><tspan
         sodipodi:role="line"
         id="tspan4407"
         x="225.71429"
         y="188.64792"
         style="fill:#ffffff;fill-opacity:1">1234567890</tspan></text>
    <text
       sodipodi:linespacing="125%"
       id="text4409"
       y="346.64792"
       x="225.71429"
       style="font-style:normal;font-weight:normal;font-size:40px;line-height:125%;font-family:sans-serif;letter-spacing:0px;word-spacing:0px;fill:#000000;fill-opacity:1;stroke:none;stroke-width:1px;stroke-linecap:butt;stroke-linejoin:miter;stroke-opacity:1"
       xml:space="preserve"><tspan
         style="fill:#ffffff;fill-opacity:1"
         y="346.64792"
         x="225.71429"
         id="tspan4411"
         sodipodi:role="line">1234567891</tspan></text>
    <text
       xml:space="preserve"
       style="font-style:normal;font-weight:normal;font-size:40px;line-height:125%;font-family:sans-serif;letter-spacing:0px;word-spacing:0px;fill:#000000;fill-opacity:1;stroke:none;stroke-width:1px;stroke-linecap:butt;stroke-linejoin:miter;stroke-opacity:1"
       x="225.71429"
       y="500.64792"
       id="text4413"
       sodipodi:linespacing="125%"><tspan
         sodipodi:role="line"
         id="tspan4415"
         x="225.71429"
         y="500.64792"
         style="fill:#ffffff;fill-opacity:1">1234567892</tspan></text>
    <text
       sodipodi:linespacing="125%"
       id="text4417"
       y="660.64795"
       x="225.71429"
       style="font-style:normal;font-weight:normal;font-size:40px;line-height:125%;font-family:sans-serif;letter-spacing:0px;word-spacing:0px;fill:#e9dada;fill-opacity:1;stroke:none;stroke-width:1px;stroke-linecap:butt;stroke-linejoin:miter;stroke-opacity:1;filter:url(#filter4549)"
       xml:space="preserve"><tspan
         style="fill:#e9dada;fill-opacity:1"
         y="660.64795"
         x="225.71429"
         id="tspan4419"
         sodipodi:role="line">1234567890</tspan></text>
    <path
       inkscape:connector-curvature="0"
       d="m 133.63195,581.12685 c -18.46234,0 -35.182935,6.89724 -48.071736,18.11399 l -25.080931,-25.08091 0,62.70227 62.702297,0 -25.220249,-25.22025 c 9.684009,-8.08162 22.015449,-13.0978 35.670619,-13.0978 24.6629,0 45.63332,16.09358 52.94858,38.31805 l 16.5116,-5.4342 c -9.68401,-29.19139 -37.06401,-50.30115 -69.46018,-50.30115 z"
       id="path6-9"
       style="fill:#fafafa;fill-opacity:1" />
    <path
       inkscape:connector-curvature="0"
       d="m 290.33764,554.45852 c -32.5638,0 -58.9924,26.4286 -58.9924,58.9924 0,32.5638 26.4286,58.9924 58.9924,58.9924 32.5638,0 58.9924,-26.4286 58.9924,-58.9924 0,-32.5638 -26.4286,-58.9924 -58.9924,-58.9924 z m 5.89924,88.4886 -11.79848,0 0,-35.39544 11.79848,0 0,35.39544 z m 0,-47.19392 -11.79848,0 0,-11.79848 11.79848,0 0,11.79848 z"
       id="path6-6"
       style="fill:#ffffff;fill-opacity:1" />
    <path
       inkscape:connector-curvature="0"
       d="m 372.59578,904.4769 -13.35903,0 0,26.71806 -26.71806,0 0,13.35903 26.71806,0 0,26.71807 13.35903,0 0,-26.71807 26.71807,0 0,-13.35903 -26.71807,0 0,-26.71806 z m -6.67951,-33.39758 c -36.87093,0 -66.79516,29.92423 -66.79516,66.79517 0,36.87092 29.92423,66.79521 66.79516,66.79521 36.87093,0 66.79516,-29.92429 66.79516,-66.79521 0,-36.87094 -29.92423,-66.79517 -66.79516,-66.79517 z m 0,120.23136 c -29.45666,0 -53.43613,-23.97953 -53.43613,-53.43619 0,-29.45667 23.97947,-53.43614 53.43613,-53.43614 29.45667,0 53.43612,23.97947 53.43612,53.43614 0,29.45666 -23.97945,53.43619 -53.43612,53.43619 z"
       id="path6-8"
       style="fill:#ffffff;fill-opacity:1" />
    <text
       sodipodi:linespacing="125%"
       id="text4593"
       y="837.62903"
       x="22.054512"
       style="font-style:normal;font-weight:normal;font-size:183.98686218px;line-height:125%;font-family:sans-serif;letter-spacing:0px;word-spacing:0px;display:inline;fill:#068e77;fill-opacity:1;stroke:none;stroke-width:1px;stroke-linecap:butt;stroke-linejoin:miter;stroke-opacity:1"
       xml:space="preserve"><tspan
         y="837.62903"
         x="22.054512"
         id="tspan4595"
         sodipodi:role="line">⚙</tspan></text>
    <text
       sodipodi:linespacing="125%"
       id="text4597"
       y="771.6767"
       x="226.39589"
       style="font-style:normal;font-variant:normal;font-weight:normal;font-stretch:normal;font-size:76.06375122px;line-height:125%;font-family:Alexander;-inkscape-font-specification:'Alexander, Normal';text-align:start;letter-spacing:0px;word-spacing:0px;writing-mode:lr-tb;text-anchor:start;display:inline;fill:#000000;fill-opacity:1;stroke:none;stroke-width:1px;stroke-linecap:butt;stroke-linejoin:miter;stroke-opacity:1"
       xml:space="preserve"><tspan
         style="font-style:normal;font-variant:normal;font-weight:normal;font-stretch:normal;font-size:76.06375122px;line-height:125%;font-family:Alexander;-inkscape-font-specification:'Alexander, Normal';text-align:start;writing-mode:lr-tb;text-anchor:start;fill:#fdfdfd;fill-opacity:1"
         y="771.6767"
         x="226.39589"
         id="tspan4599"
         sodipodi:role="line">Хата</tspan></text>
    <text
       sodipodi:linespacing="125%"
       id="text4601"
       y="820.64795"
       x="225.71429"
       style="font-style:normal;font-weight:normal;font-size:40px;line-height:125%;font-family:sans-serif;letter-spacing:0px;word-spacing:0px;fill:#000000;fill-opacity:1;stroke:none;stroke-width:1px;stroke-linecap:butt;stroke-linejoin:miter;stroke-opacity:1"
       xml:space="preserve"><tspan
         style="fill:#ffffff;fill-opacity:1"
         y="820.64795"
         x="225.71429"
         id="tspan4603"
         sodipodi:role="line">1234567892</tspan></text>
    <path
       inkscape:connector-curvature="0"
       d="m 272.14285,515.71934 93.57143,-93.57143 93.57143,93.57143 z"
       id="path4-2"
       style="fill:#ffffff;fill-opacity:1" />
    <path
       style="fill:#ffffff;fill-opacity:1"
       id="path4611"
       d="m 459.28571,713.57648 -93.57143,93.57143 -93.57143,-93.57143 z"
       inkscape:connector-curvature="0" />
    <path
       inkscape:connector-curvature="0"
       d="m 592.02146,113.43363 c 0,-6.96214 5.6593,-12.62143 12.6214,-12.62143 l 16.2858,0 0,-7.735713 -16.2858,0 c -11.2371,0 -20.3571,9.120003 -20.3571,20.357143 0,11.23715 9.12,20.35715 20.3571,20.35715 l 16.2858,0 0,-7.73572 -16.2858,0 c -6.9621,0 -12.6214,-5.65928 -12.6214,-12.62143 z m 16.6929,4.07143 32.5714,0 0,-8.14286 -32.5714,0 0,8.14286 z m 36.6428,-24.428573 -16.2857,0 0,7.735713 16.2857,0 c 6.9622,0 12.6215,5.65929 12.6215,12.62143 0,6.96215 -5.6593,12.62143 -12.6215,12.62143 l -16.2857,0 0,7.73572 16.2857,0 c 11.2372,0 20.3572,-9.12 20.3572,-20.35715 0,-11.23714 -9.12,-20.357143 -20.3572,-20.357143 z"
       id="path6-52"
       style="fill:#00ff00" />
    <path
       style="fill:#d40000"
       id="path4713"
       d="m 589.16432,269.71934 c 0,-6.96214 5.6593,-12.62143 12.6214,-12.62143 l 16.2858,0 0,-7.73571 -16.2858,0 c -11.2371,0 -20.3571,9.12 -20.3571,20.35714 0,11.23715 9.12,20.35715 20.3571,20.35715 l 16.2858,0 0,-7.73572 -16.2858,0 c -6.9621,0 -12.6214,-5.65928 -12.6214,-12.62143 z m 16.6929,4.07143 32.5714,0 0,-8.14286 -32.5714,0 0,8.14286 z m 36.6428,-24.42857 -16.2857,0 0,7.73571 16.2857,0 c 6.9622,0 12.6215,5.65929 12.6215,12.62143 0,6.96215 -5.6593,12.62143 -12.6215,12.62143 l -16.2857,0 0,7.73572 16.2857,0 c 11.2372,0 20.3572,-9.12 20.3572,-20.35715 0,-11.23714 -9.12,-20.35714 -20.3572,-20.35714 z"
       inkscape:connector-curvature="0" />
    <path
       inkscape:connector-curvature="0"
       d="m 589.16432,434.00506 c 0,-6.96214 5.6593,-12.62143 12.6214,-12.62143 l 16.2858,0 0,-7.73571 -16.2858,0 c -11.2371,0 -20.3571,9.12 -20.3571,20.35714 0,11.23715 9.12,20.35715 20.3571,20.35715 l 16.2858,0 0,-7.73572 -16.2858,0 c -6.9621,0 -12.6214,-5.65928 -12.6214,-12.62143 z m 16.6929,4.07143 32.5714,0 0,-8.14286 -32.5714,0 0,8.14286 z m 36.6428,-24.42857 -16.2857,0 0,7.73571 16.2857,0 c 6.9622,0 12.6215,5.65929 12.6215,12.62143 0,6.96215 -5.6593,12.62143 -12.6215,12.62143 l -16.2857,0 0,7.73572 16.2857,0 c 11.2372,0 20.3572,-9.12 20.3572,-20.35715 0,-11.23714 -9.12,-20.35714 -20.3572,-20.35714 z"
       id="path4715"
       style="fill:#00ff00" />
    <path
       style="fill:#d40000"
       id="path4717"
       d="m 589.16432,750.8622 c 0,-6.96214 5.6593,-12.62143 12.6214,-12.62143 l 16.2858,0 0,-7.73571 -16.2858,0 c -11.2371,0 -20.3571,9.12 -20.3571,20.35714 0,11.23715 9.12,20.35715 20.3571,20.35715 l 16.2858,0 0,-7.73572 -16.2858,0 c -6.9621,0 -12.6214,-5.65928 -12.6214,-12.62143 z m 16.6929,4.07143 32.5714,0 0,-8.14286 -32.5714,0 0,8.14286 z m 36.6428,-24.42857 -16.2857,0 0,7.73571 16.2857,0 c 6.9622,0 12.6215,5.65929 12.6215,12.62143 0,6.96215 -5.6593,12.62143 -12.6215,12.62143 l -16.2857,0 0,7.73572 16.2857,0 c 11.2372,0 20.3572,-9.12 20.3572,-20.35715 0,-11.23714 -9.12,-20.35714 -20.3572,-20.35714 z"
       inkscape:connector-curvature="0" />
    <path
       style="fill:#00ff00;filter:url(#filter4851)"
       id="path4721"
       d="m 587.73575,571.14792 c 0,-6.96214 5.6593,-12.62143 12.6214,-12.62143 l 16.2858,0 0,-7.73571 -16.2858,0 c -11.2371,0 -20.3571,9.12 -20.3571,20.35714 0,11.23715 9.12,20.35715 20.3571,20.35715 l 16.2858,0 0,-7.73572 -16.2858,0 c -6.9621,0 -12.6214,-5.65928 -12.6214,-12.62143 z m 16.6929,4.07143 32.5714,0 0,-8.14286 -32.5714,0 0,8.14286 z m 36.6428,-24.42857 -16.2857,0 0,7.73571 16.2857,0 c 6.9622,0 12.6215,5.65929 12.6215,12.62143 0,6.96215 -5.6593,12.62143 -12.6215,12.62143 l -16.2857,0 0,7.73572 16.2857,0 c 11.2372,0 20.3572,-9.12 20.3572,-20.35715 0,-11.23714 -9.12,-20.35714 -20.3572,-20.35714 z"
       inkscape:connector-curvature="0" />
    <path
       inkscape:connector-curvature="0"
       d="m 577.55621,663.57653 c 0,7.91606 6.18987,14.39283 13.75529,14.39283 l 55.02114,0 c 7.5654,0 13.75527,-6.47677 13.75527,-14.39283 l 0,-86.3569 -82.5317,0 0,86.3569 z m 16.919,-51.23843 9.69747,-10.14693 14.64938,15.25638 14.58061,-15.25638 9.69747,10.14693 -14.5806,15.2564 14.5806,15.25638 -9.69747,10.14693 -14.58061,-15.25638 -14.5806,15.25638 -9.69747,-10.14693 14.5806,-15.25638 -14.64938,-15.2564 z m 48.41861,-56.7077 -6.87764,-7.19641 -34.38823,0 -6.87764,7.19641 -24.07175,0 0,14.39283 96.28701,0 0,-14.39283 z"
       id="path6-5"
       style="fill:#f51818;fill-opacity:1" />
  </g>
  <g
     inkscape:label="Layer 1"
     inkscape:groupmode="layer"
     id="layer1"
     style="display:none">
    <ellipse
       style="fill:none;fill-opacity:1;stroke:#ffffff;stroke-width:10;stroke-miterlimit:4;stroke-dasharray:none;stroke-opacity:1"
       id="path4136"
       cx="384.59027"
       cy="554.03589"
       rx="202.85715"
       ry="202.85713" />
    <text
       xml:space="preserve"
       style="font-style:normal;font-weight:normal;font-size:183.98686218px;line-height:125%;font-family:sans-serif;letter-spacing:0px;word-spacing:0px;fill:#068e77;fill-opacity:1;stroke:none;stroke-width:1px;stroke-linecap:butt;stroke-linejoin:miter;stroke-opacity:1"
       x="558.10693"
       y="168.03833"
       id="text4140"
       sodipodi:linespacing="125%"><tspan
         sodipodi:role="line"
         id="tspan4142"
         x="558.10693"
         y="168.03833">⚙</tspan></text>
    <g
       inkscape:groupmode="layer"
       id="layer5"
       inkscape:label="Layer 1 - anim 3"
       style="display:inline">
      <text
         xml:space="preserve"
         style="font-style:normal;font-weight:normal;font-size:43.5701561px;line-height:125%;font-family:sans-serif;letter-spacing:0px;word-spacing:0px;fill:#ef1818;fill-opacity:1;stroke:none;stroke-width:1px;stroke-linecap:butt;stroke-linejoin:miter;stroke-opacity:1"
         x="103.22103"
         y="861.61957"
         id="text4237"
         sodipodi:linespacing="125%"><tspan
           sodipodi:role="line"
           id="tspan4239"
           x="103.22103"
           y="861.61957"
           style="fill:#ef1818;fill-opacity:1">Немає зв'язку з замком</tspan></text>
    </g>
    <g
       inkscape:groupmode="layer"
       id="layer4"
       inkscape:label="Layer 1 - anim 2"
       style="display:inline">
      <circle
         style="fill:none;fill-opacity:1;stroke:#ffffff;stroke-width:2.48833036;stroke-miterlimit:4;stroke-dasharray:none;stroke-opacity:1"
         id="path4324"
         cx="178.5"
         cy="962.005"
         r="15.255835" />
      <circle
         r="15.255835"
         cy="962.005"
         cx="238.5"
         id="circle4326"
         style="fill:none;fill-opacity:1;stroke:#ffffff;stroke-width:2.48833036;stroke-miterlimit:4;stroke-dasharray:none;stroke-opacity:0.32608696" />
      <circle
         style="fill:none;fill-opacity:1;stroke:#ffffff;stroke-width:2.48833036;stroke-miterlimit:4;stroke-dasharray:none;stroke-opacity:0.32608696"
         id="circle4328"
         cx="298.5"
         cy="962.005"
         r="15.255835" />
      <circle
         r="15.255835"
         cy="962.005"
         cx="458.5"
         id="circle4330"
         style="fill:none;fill-opacity:1;stroke:#ffffff;stroke-width:2.48833036;stroke-miterlimit:4;stroke-dasharray:none;stroke-opacity:0.32608696" />
      <circle
         style="fill:none;fill-opacity:1;stroke:#ffffff;stroke-width:2.48833036;stroke-miterlimit:4;stroke-dasharray:none;stroke-opacity:0.32608696"
         id="circle4332"
         cx="518.5"
         cy="962.005"
         r="15.255835" />
      <circle
         r="15.255835"
         cy="962.005"
         cx="578.5"
         id="circle4334"
         style="fill:none;fill-opacity:1;stroke:#ffffff;stroke-width:2.48833036;stroke-miterlimit:4;stroke-dasharray:none;stroke-opacity:0.32608696" />
    </g>
    <g
       inkscape:groupmode="layer"
       id="layer3"
       inkscape:label="Layer 1 - amin 1"
       style="display:none">
      <path
         style="display:inline;fill:none;fill-rule:evenodd;stroke:#53ec5f;stroke-width:5;stroke-linecap:butt;stroke-linejoin:miter;stroke-miterlimit:4;stroke-dasharray:none;stroke-opacity:1"
         d="m 154.06857,961.44847 51.0127,0"
         id="path4209"
         inkscape:connector-curvature="0" />
      <text
         xml:space="preserve"
         style="font-style:normal;font-weight:normal;font-size:103.39847565px;line-height:125%;font-family:sans-serif;letter-spacing:0px;word-spacing:0px;display:inline;fill:#000000;fill-opacity:1;stroke:none;stroke-width:1px;stroke-linecap:butt;stroke-linejoin:miter;stroke-opacity:1"
         x="200.27"
         y="1000.9388"
         id="text4205"
         sodipodi:linespacing="125%"><tspan
           sodipodi:role="line"
           id="tspan4207"
           x="200.27"
           y="1000.9388"
           style="fill:#8bff8b;fill-opacity:1">✔</tspan></text>
      <path
         inkscape:connector-curvature="0"
         id="path4211"
         d="m 264.27672,961.44847 51.0127,0"
         style="display:inline;fill:none;fill-rule:evenodd;stroke:#53ec5f;stroke-width:5;stroke-linecap:butt;stroke-linejoin:miter;stroke-miterlimit:4;stroke-dasharray:none;stroke-opacity:1" />
      <path
         inkscape:connector-curvature="0"
         id="path4213"
         d="m 437.51788,961.44847 51.0127,0"
         style="display:inline;fill:none;fill-rule:evenodd;stroke:#de2525;stroke-width:5;stroke-linecap:butt;stroke-linejoin:miter;stroke-miterlimit:4;stroke-dasharray:none;stroke-opacity:1" />
      <text
         sodipodi:linespacing="125%"
         id="text4215"
         y="1000.9388"
         x="483.71933"
         style="font-style:normal;font-weight:normal;font-size:103.39847565px;line-height:125%;font-family:sans-serif;letter-spacing:0px;word-spacing:0px;display:inline;fill:#d41533;fill-opacity:1;stroke:none;stroke-width:1px;stroke-linecap:butt;stroke-linejoin:miter;stroke-opacity:1"
         xml:space="preserve"><tspan
           style="fill:#d41533;fill-opacity:1"
           y="1000.9388"
           x="483.71933"
           id="tspan4217"
           sodipodi:role="line">✘</tspan></text>
      <path
         style="display:inline;fill:none;fill-rule:evenodd;stroke:#de2525;stroke-width:5;stroke-linecap:butt;stroke-linejoin:miter;stroke-miterlimit:4;stroke-dasharray:none;stroke-opacity:1"
         d="m 549.72603,961.44847 51.0127,0"
         id="path4219"
         inkscape:connector-curvature="0" />
    </g>
    <circle
       style="fill:none;fill-opacity:1;stroke:#ffffff;stroke-width:3.02891779;stroke-miterlimit:4;stroke-dasharray:none;stroke-opacity:1"
       id="path4191"
       cx="378.42395"
       cy="961.95355"
       r="42.376415" />
    <text
       xml:space="preserve"
       style="font-style:normal;font-weight:normal;font-size:40px;line-height:125%;font-family:sans-serif;letter-spacing:0px;word-spacing:0px;fill:#000000;fill-opacity:1;stroke:none;stroke-width:1px;stroke-linecap:butt;stroke-linejoin:miter;stroke-opacity:1"
       x="-270.72089"
       y="436.16916"
       id="text4193"
       sodipodi:linespacing="125%"><tspan
         sodipodi:role="line"
         id="tspan4195"
         x="-270.72089"
         y="436.16916"
         style="fill:#ffffff;fill-opacity:1">⏻</tspan></text>
    <text
       xml:space="preserve"
       style="font-style:normal;font-weight:normal;font-size:40px;line-height:125%;font-family:sans-serif;letter-spacing:0px;word-spacing:0px;fill:#000000;fill-opacity:1;stroke:none;stroke-width:1px;stroke-linecap:butt;stroke-linejoin:miter;stroke-opacity:1"
       x="-307.08636"
       y="422.02701"
       id="text4197"
       sodipodi:linespacing="125%"><tspan
         sodipodi:role="line"
         id="tspan4199"
         x="-307.08636"
         y="422.02701"
         style="fill:#ffffff;fill-opacity:1">⏻</tspan></text>
    <text
       xml:space="preserve"
       style="font-style:normal;font-weight:normal;font-size:40px;line-height:125%;font-family:sans-serif;letter-spacing:0px;word-spacing:0px;fill:#000000;fill-opacity:1;stroke:none;stroke-width:1px;stroke-linecap:butt;stroke-linejoin:miter;stroke-opacity:1"
       x="-371.73615"
       y="365.45847"
       id="text4201"
       sodipodi:linespacing="125%"><tspan
         sodipodi:role="line"
         id="tspan4203"
         x="-371.73615"
         y="365.45847"
         style="fill:#ffff00;fill-opacity:1">⏻</tspan></text>
    <circle
       r="42.376415"
       cy="961.95355"
       cx="89.852524"
       id="circle4225"
       style="fill:none;fill-opacity:1;stroke:#ffffff;stroke-width:3.02891779;stroke-miterlimit:4;stroke-dasharray:none;stroke-opacity:1" />
    <circle
       style="fill:none;fill-opacity:1;stroke:#ffffff;stroke-width:3.02891779;stroke-miterlimit:4;stroke-dasharray:none;stroke-opacity:1"
       id="circle4231"
       cx="659.70966"
       cy="961.95355"
       r="42.376415" />
    <path
       inkscape:connector-curvature="0"
       d="m 203.40915,254.00337 -107.468229,0 c -6.567508,0 -11.94092,5.3734 -11.94092,11.9409 l 0,23.82214 11.94092,0 0,-23.94154 107.468229,0 0,83.76553 -107.468229,0 0,-24.00124 -11.94092,0 0,23.94153 c 0,6.56751 5.373412,11.82151 11.94092,11.82151 l 107.468229,0 c 6.56751,0 11.94092,-5.254 11.94092,-11.82151 l 0,-83.58642 c 0,-6.6272 -5.37341,-11.9409 -11.94092,-11.9409 z m -59.70457,77.55624 23.88184,-23.88183 -23.88184,-23.88183 0,17.91138 -59.704579,0 0,11.94091 59.704579,0 0,17.91137 z"
       id="path6"
       style="fill:#71c837" />
    <text
       xml:space="preserve"
       style="font-style:normal;font-weight:normal;font-size:71.16122437px;line-height:125%;font-family:sans-serif;letter-spacing:0px;word-spacing:0px;fill:#000000;fill-opacity:1;stroke:none;stroke-width:1px;stroke-linecap:butt;stroke-linejoin:miter;stroke-opacity:1"
       x="47.023514"
       y="109.51962"
       id="text4336"
       sodipodi:linespacing="125%"
       transform="scale(0.96122697,1.040337)"><tspan
         sodipodi:role="line"
         id="tspan4338"
         x="47.023514"
         y="109.51962"
         style="fill:#fdfdfd;fill-opacity:1">Прохідна 1</tspan></text>
    <path
       inkscape:connector-curvature="0"
       d="m 486.37028,428.99078 c -1.37143,0 -2.74286,-0.34285 -3.94286,-1.02858 -32.91429,-16.97142 -61.37143,-24.17142 -95.48571,-24.17142 -33.94286,0 -66.17143,8.05715 -95.48572,24.17142 -4.11428,2.22858 -9.25714,0.68573 -11.65714,-3.42855 -2.22857,-4.1143 -0.68572,-9.42858 3.42857,-11.65715 31.88571,-17.3143 66.85713,-26.22857 103.71429,-26.22857 36.51428,0 68.4,8.05714 103.37142,26.05714 4.28572,2.22858 5.82858,7.37143 3.6,11.48571 -1.54285,3.08572 -4.45714,4.8 -7.54285,4.8 z m -245.31429,90 c -1.71428,0 -3.42857,-0.51428 -4.97144,-1.54285 -3.94284,-2.74286 -4.8,-8.05715 -2.05713,-12 16.97143,-24 38.57143,-42.85715 64.28571,-56.05715 53.82858,-27.77143 122.74286,-27.94285 176.74286,-0.17143 25.71429,13.2 47.31429,31.88572 64.28572,55.7143 2.74284,3.77142 1.88571,9.25713 -2.05716,12 -3.94284,2.74285 -9.25713,1.8857 -12,-2.05715 -15.42856,-21.6 -34.97142,-38.57143 -58.11427,-50.4 -49.2,-25.2 -112.11429,-25.2 -161.14286,0.17143 -23.31429,12 -42.85714,29.14285 -58.28571,50.74285 -1.37143,2.4 -3.94286,3.6 -6.68572,3.6 z m 107.14286,206.91429 c -2.22857,0 -4.45714,-0.85714 -6,-2.57142 -14.9143,-14.9143 -22.97143,-24.5143 -34.45714,-45.25715 -11.82858,-21.08572 -18,-46.8 -18,-74.4 0,-50.9143 43.54284,-92.4 97.02857,-92.4 53.48571,0 97.02857,41.4857 97.02857,92.4 0,4.8 -3.77143,8.57143 -8.57143,8.57143 -4.8,0 -8.57143,-3.77143 -8.57143,-8.57143 0,-41.48572 -35.82857,-75.25715 -79.88571,-75.25715 -44.05715,0 -79.88573,33.77143 -79.88573,75.25715 0,24.6857 5.48573,47.4857 15.94287,66 10.97143,19.71428 18.51429,28.11428 31.71429,41.4857 3.25714,3.42858 3.25714,8.74287 0,12.17145 -1.88572,1.71428 -4.11429,2.57142 -6.34286,2.57142 z m 122.91428,-31.71429 c -20.4,0 -38.4,-5.14285 -53.14285,-15.25713 -25.54286,-17.3143 -40.8,-45.42858 -40.8,-75.25715 0,-4.8 3.77143,-8.57143 8.57143,-8.57143 4.8,0 8.57142,3.77143 8.57142,8.57143 0,24.17143 12.34286,46.97143 33.25715,61.02857 12.17143,8.22858 26.4,12.17143 43.54285,12.17143 4.11429,0 10.97142,-0.5143 17.82858,-1.7143 4.62857,-0.85713 9.08571,2.22858 9.94284,7.02858 0.85716,4.62857 -2.22856,9.08572 -7.02856,9.94287 -9.77144,1.8857 -18.34286,2.05713 -20.74286,2.05713 z m -34.45714,35.31429 c -0.68571,0 -1.54286,-0.17142 -2.22857,-0.34287 -27.25714,-7.54285 -45.08571,-17.65713 -63.77143,-36 -24,-23.82855 -37.2,-55.54285 -37.2,-89.4857 0,-27.77143 23.65714,-50.4 52.8,-50.4 29.14286,0 52.8,22.62857 52.8,50.4 0,18.34285 15.94286,33.25715 35.65714,33.25715 19.71429,0 35.65715,-14.9143 35.65715,-33.25715 0,-64.62857 -55.71429,-117.08572 -124.28573,-117.08572 -48.6857,0 -93.25713,27.08572 -113.31427,69.08572 -6.68573,13.8857 -10.11429,30.17143 -10.11429,48 0,13.37143 1.2,34.45715 11.48572,61.8857 1.71428,4.45715 -0.51429,9.42858 -4.97143,10.97145 -4.45715,1.71428 -9.42857,-0.68572 -10.97143,-4.97145 -8.4,-22.45713 -12.5143,-44.74285 -12.5143,-67.8857 0,-20.57143 3.94287,-39.25715 11.65716,-55.54285 22.8,-47.82858 73.37142,-78.85715 128.74284,-78.85715 78,0 141.42858,60.17143 141.42858,134.22857 0,27.77143 -23.65714,50.4 -52.8,50.4 -29.14285,0 -52.8,-22.62857 -52.8,-50.4 0,-18.34287 -15.94285,-33.25714 -35.65714,-33.25714 -19.71428,0 -35.65714,14.91427 -35.65714,33.25714 0,29.31428 11.31428,56.74286 32.05714,77.31428 16.28572,16.1143 31.88572,25.02858 56.05714,31.7143 4.62858,1.2 7.2,6 6,10.45713 -0.85714,3.94287 -4.45714,6.51429 -8.05714,6.51429 z"
       id="path4"
       style="fill:#e3e2db;fill-opacity:0.44927548" />
    <path
       inkscape:connector-curvature="0"
       d="m 623.74148,339.63091 c 7.31088,0 13.2925,-5.98164 13.2925,-13.29252 0,-7.31088 -5.98162,-13.29251 -13.2925,-13.29251 -7.31088,0 -13.2925,5.98163 -13.2925,13.29251 0,7.31088 5.98162,13.29252 13.2925,13.29252 z m 39.87758,-59.81633 -6.64625,0 0,-13.29251 c 0,-18.34368 -14.88765,-33.2313 -33.23133,-33.2313 -18.34368,0 -33.23125,14.88762 -33.23125,33.2313 l 12.62787,0 c 0,-11.3651 9.23831,-20.60341 20.60338,-20.60341 11.36515,0 20.60338,9.23831 20.60338,20.60341 l 0,13.29251 -60.48092,0 c -7.31088,0 -13.29251,5.98164 -13.29251,13.29252 l 0,66.46259 c 0,7.31088 5.98163,13.29251 13.29251,13.29251 l 79.75512,0 c 7.31088,0 13.29249,-5.98163 13.29249,-13.29251 l 0,-66.46259 c 0,-7.31088 -5.98161,-13.29252 -13.29249,-13.29252 z m 0,79.75511 -79.75512,0 0,-66.46259 79.75512,0 0,66.46259 z"
       id="path6-7"
       style="fill:#55d400" />
    <path
       style="fill:#ffffff;fill-opacity:1"
       id="path4693"
       d="m 660.42467,975.34979 c 3.47471,0 6.31764,-2.84295 6.31764,-6.31766 0,-3.47471 -2.84293,-6.31765 -6.31764,-6.31765 -3.47471,0 -6.31765,2.84294 -6.31765,6.31765 0,3.47471 2.84294,6.31766 6.31765,6.31766 z m 18.95298,-28.42945 -3.15883,0 0,-6.31765 c 0,-8.71837 -7.07579,-15.79414 -15.79415,-15.79414 -8.71837,0 -15.79412,7.07577 -15.79412,15.79414 l 6.00176,0 c 0,-5.40159 4.39078,-9.79237 9.79236,-9.79237 5.40162,0 9.79235,4.39078 9.79235,9.79237 l 0,6.31765 -28.74531,0 c -3.47471,0 -6.31765,2.84295 -6.31765,6.31766 l 0,31.58822 c 0,3.4748 2.84294,6.3177 6.31765,6.3177 l 37.90594,0 c 3.4747,0 6.31764,-2.8429 6.31764,-6.3177 l 0,-31.58822 c 0,-3.47471 -2.84294,-6.31766 -6.31764,-6.31766 z m 0,37.90588 -37.90594,0 0,-31.58822 37.90594,0 0,31.58822 z"
       inkscape:connector-curvature="0" />
    <path
       inkscape:connector-curvature="0"
       d="m 107.64787,931.66312 -35.12442,0 c -3.462267,0 -6.27222,2.80996 -6.27222,6.27222 l 0,47.66882 c 0,3.4623 2.809953,6.27221 6.27222,6.27221 l 35.12442,0 c 3.4623,0 6.27221,-2.80991 6.27221,-6.27221 l 0,-47.66882 c 0,-3.46226 -2.80991,-6.27222 -6.27221,-6.27222 z m -17.562232,57.70441 c -2.082348,0 -3.763311,-1.68096 -3.763311,-3.76337 0,-2.08235 1.680963,-3.76327 3.763311,-3.76327 2.082411,0 3.763362,1.68092 3.763362,3.76327 0,2.08241 -1.680951,3.76337 -3.763362,3.76337 z m 18.816692,-10.03555 -37.633322,0 0,-40.1422 37.633322,0 0,40.1422 z"
       id="path4-0"
       style="fill:#ffffff;fill-opacity:1" />
    <path
       inkscape:connector-curvature="0"
       d="m 400.18035,952.26641 c -2.01572,-10.22675 -10.99751,-17.90424 -21.7875,-17.90424 -8.56679,0 -16.00715,4.86144 -19.7125,11.97568 -8.9225,0.94856 -15.85893,8.5075 -15.85893,17.66719 0,9.81175 7.97393,17.78569 17.78571,17.78569 l 38.53571,0 c 8.18143,0 14.82143,-6.64 14.82143,-14.82144 0,-7.82569 -6.07679,-14.16925 -13.78392,-14.70288 z m -1.03751,23.59576 -38.53571,0 c -6.55107,0 -11.85714,-5.30606 -11.85714,-11.85713 0,-6.55112 5.30607,-11.85719 11.85714,-11.85719 l 2.10465,0 c 1.95643,-6.84749 8.21107,-11.85712 15.68107,-11.85712 9.01142,0 16.30356,7.29212 16.30356,16.30357 l 0,1.48211 4.44643,0 c 4.92072,0 8.89287,3.97219 8.89287,8.89288 0,4.92075 -3.97215,8.89288 -8.89287,8.89288 z"
       id="path6-90"
       style="fill:#ffffff" />
  </g>
  <g
     inkscape:groupmode="layer"
     id="layer2"
     inkscape:label="Link"
     style="display:none">
    <rect
       style="fill:none;fill-opacity:1;stroke:#ffffff;stroke-width:10.72463322;stroke-miterlimit:4;stroke-dasharray:none;stroke-opacity:1"
       id="rect4145"
       width="660.92529"
       height="143.72717"
       x="42.196983"
       y="128.12167" />
    <text
       xml:space="preserve"
       style="font-style:normal;font-weight:normal;font-size:56.84711838px;line-height:125%;font-family:sans-serif;letter-spacing:0px;word-spacing:0px;fill:#000000;fill-opacity:1;stroke:none;stroke-width:1px;stroke-linecap:butt;stroke-linejoin:miter;stroke-opacity:1"
       x="26.28595"
       y="128.96472"
       id="text4147"
       sodipodi:linespacing="125%"
       transform="scale(1.2936517,0.77300559)"><tspan
         sodipodi:role="line"
         id="tspan4149"
         x="26.28595"
         y="128.96472"
         style="fill:#ffffff;fill-opacity:1">IMEI</tspan></text>
    <rect
       style="fill:#ffffff;fill-opacity:1;stroke:#ffffff;stroke-width:10;stroke-miterlimit:4;stroke-dasharray:none;stroke-opacity:1"
       id="rect4151"
       width="659.62964"
       height="162.63457"
       x="43.263245"
       y="577.69928"
       ry="0" />
    <text
       xml:space="preserve"
       style="font-style:normal;font-weight:normal;font-size:130.29856873px;line-height:125%;font-family:sans-serif;letter-spacing:0px;word-spacing:0px;fill:#000000;fill-opacity:1;stroke:none;stroke-width:1px;stroke-linecap:butt;stroke-linejoin:miter;stroke-opacity:1"
       x="57.042778"
       y="747.33618"
       id="text4153"
       sodipodi:linespacing="125%"
       transform="scale(1.0776602,0.92793629)"><tspan
         sodipodi:role="line"
         id="tspan4155"
         x="57.042778"
         y="747.33618">ДОДАТИ</tspan></text>
    <rect
       y="393.55026"
       x="40.768414"
       height="143.72717"
       width="660.92529"
       id="rect4577"
       style="fill:none;fill-opacity:1;stroke:#ffffff;stroke-width:10.72463322;stroke-miterlimit:4;stroke-dasharray:none;stroke-opacity:1" />
    <text
       transform="scale(1.1313243,0.88391985)"
       sodipodi:linespacing="125%"
       id="text4579"
       y="401.17126"
       x="31.091684"
       style="font-style:normal;font-weight:normal;font-size:67.33335114px;line-height:125%;font-family:sans-serif;letter-spacing:0px;word-spacing:0px;fill:#000000;fill-opacity:1;stroke:none;stroke-width:1px;stroke-linecap:butt;stroke-linejoin:miter;stroke-opacity:1"
       xml:space="preserve"><tspan
         style="fill:#ffffff;fill-opacity:1"
         y="401.17126"
         x="31.091684"
         id="tspan4581"
         sodipodi:role="line">Найменування</tspan></text>
  </g>
</svg>
