<?xml version="1.0" encoding="UTF-8" standalone="no"?>
<svg
   xmlns:dc="http://purl.org/dc/elements/1.1/"
   xmlns:cc="http://creativecommons.org/ns#"
   xmlns:rdf="http://www.w3.org/1999/02/22-rdf-syntax-ns#"
   xmlns:svg="http://www.w3.org/2000/svg"
   xmlns="http://www.w3.org/2000/svg"
   xmlns:sodipodi="http://sodipodi.sourceforge.net/DTD/sodipodi-0.dtd"
   xmlns:inkscape="http://www.inkscape.org/namespaces/inkscape"
   version="1.0"
   width="875"
   height="875"
   viewBox="0 0 700 700"
   preserveAspectRatio="xMidYMid meet"
   id="svg2"
   inkscape:version="0.91 r13725"
   sodipodi:docname="safari-pinned-tab.svg"
   inkscape:export-filename="/home/baden/SDK/baden.work/gsm/app/gsm_opener/src/logo-ios.png"
   inkscape:export-xdpi="105.33"
   inkscape:export-ydpi="105.33">
  <defs
     id="defs90" />
  <sodipodi:namedview
     pagecolor="#ffffff"
     bordercolor="#666666"
     borderopacity="1"
     objecttolerance="10"
     gridtolerance="10"
     guidetolerance="10"
     inkscape:pageopacity="0"
     inkscape:pageshadow="2"
     inkscape:window-width="2033"
     inkscape:window-height="976"
     id="namedview88"
     showgrid="true"
     inkscape:zoom="0.53942857"
     inkscape:cx="422.93204"
     inkscape:cy="441.24011"
     inkscape:window-x="125"
     inkscape:window-y="310"
     inkscape:window-maximized="0"
     inkscape:current-layer="svg2"
     showguides="true"
     inkscape:guide-bbox="true"
     units="px">
    <inkscape:grid
       type="xygrid"
       id="grid4264" />
    <sodipodi:guide
       position="0,884.40945"
       orientation="1,0"
       id="guide4266"
       inkscape:label=""
       inkscape:color="rgb(0,0,255)" />
  </sodipodi:namedview>
  <metadata
     id="metadata4">
Created by potrace 1.11, written by Peter Selinger 2001-2013
<rdf:RDF>
  <cc:Work
     rdf:about="">
    <dc:format>image/svg+xml</dc:format>
    <dc:type
       rdf:resource="http://purl.org/dc/dcmitype/StillImage" />
    <dc:title></dc:title>
  </cc:Work>
</rdf:RDF>
</metadata>
  <rect
     style="fill:#ffffff;fill-opacity:1;stroke-width:0.1;stroke-miterlimit:4;stroke-dasharray:none"
     id="rect4262"
     width="700"
     height="700"
     x="0"
     y="5.5067062e-14" />
  <g
     id="g4258"
     transform="matrix(1.1607967,0,0,1.1607967,-67.463515,-1.0374766)">
    <path
       d="m 385.5,8.2 c -26.7,5.7 -48.3,17.5 -67,36.3 -21.1,21.2 -33.7,47.1 -37.3,76.5 -0.8,7.2 -0.7,26.9 0.2,34.5 6.9,56.7 44.1,121.9 103.6,181.5 7.5,7.5 10.6,9.9 14.7,11.3 8.4,3 15.5,2.6 23.6,-1.1 10,-4.6 50.8,-51.4 70.4,-80.7 20.2,-30.4 37,-67.3 41.8,-92.1 3.5,-18.3 3.9,-22.1 3.9,-37.9 0,-24.5 -3.1,-37.9 -13.6,-59.2 C 516.1,57.8 499.5,39.1 481.5,27.4 465.8,17.2 453.7,12.5 430.5,7.4 428.9,7.1 420.1,6.7 411,6.5 397.7,6.3 392.7,6.7 385.5,8.2 Z m 42,78.9 c 19.8,7.4 32.6,24.2 34.2,44.8 0.7,9.9 -0.9,17.9 -5.2,26.6 -6.4,13 -16.7,22 -30.2,26.6 -13.1,4.5 -30.5,2.5 -42.9,-4.7 -18,-10.6 -28.1,-33.2 -24.2,-54.4 3.5,-19.4 19.5,-35.9 39.5,-41 6.4,-1.6 22,-0.5 28.8,2.1 z"
       id="path8"
       inkscape:connector-curvature="0"
       style="fill:#000000;stroke:none" />
    <path
       d="m 563.5,343.3 c -10.2,3.4 -13.4,5.9 -27,21.1 -4.4,4.9 -8.9,9.8 -10,11 -1.1,1.2 -5.4,6 -9.5,10.6 -4.1,4.7 -7.9,9 -8.5,9.6 -10.5,11.4 -16.1,17.8 -16.6,18.7 -0.4,0.7 -0.9,3.5 -1.3,6.2 -0.8,6.8 -4.1,16.6 -7.9,23.4 -4.5,8.2 -16.7,19.9 -25.3,24.4 -12.8,6.6 -16.1,7 -59.9,7.1 -35.3,0.1 -39.3,0 -42.5,-1.6 -9.3,-4.6 -9.7,-16.5 -0.7,-23.1 2.5,-1.9 4.5,-2 41.4,-2.1 43.5,-0.2 44.4,-0.3 53.8,-7.4 23.1,-17.4 17,-52.4 -10.5,-60.6 -4.6,-1.4 -13.3,-1.6 -62.6,-1.6 l -57.2,0 -10.4,-3.5 c -19.8,-6.8 -28.8,-8.6 -45.3,-9 -14,-0.4 -17.3,0 -33,3 -10.1,2 -28.9,10.3 -39.4,17.4 -10.1,6.9 -13.1,9.8 -56.8,53.2 L 91,483 l 16.8,16.4 c 9.2,9 21,20.5 26.2,25.6 8.8,8.5 68.8,67.1 70.1,68.4 0.3,0.3 7.8,-6.6 16.6,-15.4 l 16.1,-16 96.9,-0.1 c 105.7,-0.1 102.7,0.1 118.3,-6 8.4,-3.2 20.3,-10.7 26.6,-16.6 2.2,-2.1 8.9,-9.4 14.9,-16.3 6,-6.9 11.2,-12.7 11.5,-13 0.3,-0.3 3.4,-3.9 7,-8 3.6,-4.1 6.9,-8 7.5,-8.6 3.4,-3.7 8.1,-9.1 16,-18.4 5,-5.8 9.3,-10.7 9.6,-11 0.3,-0.3 3.9,-4.3 8,-9 4,-4.7 7.8,-9 8.4,-9.6 6.9,-7.5 39.7,-45.6 41.8,-48.7 3.9,-5.8 5.5,-12.1 5.3,-20.7 -0.3,-13.1 -6.9,-23.7 -18.7,-30 -5.2,-2.7 -7.4,-3.3 -14.3,-3.6 -5,-0.2 -9.6,0.1 -12.1,0.9 z"
       id="path10"
       inkscape:connector-curvature="0"
       style="fill:#000000;stroke:none" />
  </g>
</svg>
